<?xml version="1.0" encoding="utf-8"?>
<!-- Generator: Adobe Illustrator 27.2.0, SVG Export Plug-In . SVG Version: 6.00 Build 0)  -->
<svg version="1.1" width="100px" height="100px" id="Camada_1" xmlns="http://www.w3.org/2000/svg" xmlns:xlink="http://www.w3.org/1999/xlink" x="0px" y="0px"
	 viewBox="0 0 1080 1080" style="enable-background:new 0 0 1080 1080;" xml:space="preserve">
<style type="text/css">
	.st0{fill:#010101;}
	.st1{fill:#01BEC3;}
	.st2{fill:#99E5E7;}
	.st3{fill:#FE2273;}
	.st4{fill:#FFFFFF;}
	.st5{fill:#FFD33B;}
</style>
<path class="st0" d="M375.2,784.3c-30.2,0-55-20-61.7-50.7c-2.5-11.4-6.5-22.7-5.1-34.7c0.6-5.7-1.7-6.7-7-6.9
	c-20-0.8-20.1-0.7-27.9,19.6c-13.2,34.1-30.5,66-57.5,91.3c-35.9,33.6-89.6,41.7-129,16.7c-45.5-28.9-48.8-96.9-17.5-132.8
	c10.1-11.6,23.8-19.6,39.3-21.5c9-1.1,19.6,1.6,24.1,10.8c3.6,7.5,5.5,16.7,14.2,18.2c12,2.1,24.2,0.4,35-6.7
	c1.6-1.1,3.5-1.8,5.1-2.9c13.3-9,12.7-11.1-0.4-20c-39.9-26.9-64.8-62.8-60-113c3.1-32.3,24.3-59.4,62.9-68.6
	c15.4-3.7,30.3-3.1,45.2,2.3c22.1,8,31.6,25.1,34.3,48.3c9.4-6.8,11.2-18,17.9-25.2c9-9.6,9.3-19.4,6.2-31.5
	c-15.9-61.9-8.6-121.3,22.5-177.1c18.5-33.2,43.4-62,74.5-83.6c45.8-31.7,97.1-48.5,153.5-44c51.4,4.1,98.9,20.3,140.8,51.3
	c2.9,2.1,5.1,5.3,7.6,8c-8.2,3.9-9.6-8.8-17-7c-28.9-22.6-61.9-35.4-98-40.8c-11.7-3.6-23.7-4.8-35.8-4.9
	c-23.4-0.1-23.3-0.1-21.4,22.7c3.4,40.4,6.7,80.7,10,121.1c0.4,4.6,0.9,10.5,5.7,10.7c12.3,0.6,23.8,6.3,36.3,5.3
	c20.8,15.3,40.4,31.5,48,57.7c-0.9,7.8,1.2,13,10,14.8c6,1.2,11.5,4.5,17.3,6.9c5.8,12.6,16.2,22.5,20.5,36c1,3.1,4.5,0.9,5.7-1.2
	c6.1-9.9,14.8-17.4,23.1-25.3c5.1-4.9,0.7-6.5-2.2-9c8-4.4,17.7-3.9,25.4-10.1c10.3-8.4,22.9-13.2,35.2-18.4
	c7.5-3.2,16.4-4.7,21.8-12c17.1-0.3,33-6.8,49.8-8.7c45.6-5.1,90.4-5.7,130.9,21.3c22.5,14.9,31.1,37.6,35.3,62.1
	c5.3,31.2-0.9,60.4-19.3,87c-8,11.6-18.9,19-30.6,25c-5.5,2.9-5,3.2-1.9,7c11.1,13.6,27.9,11.9,37.1-3.9c2.4-4.1,3.8-8.9,6.6-12.7
	c6.1-8.3,14.7-14.2,25-11.9c10.7,2.4,21.8,6.3,23.6,20.3c0.4,3,2.9,5.7,4.4,8.5c-9.1,11.9-9.1,27.6-16.5,40.2
	c1.8-13,2.7-26.1,2.8-39.3c0-8.9-3.2-17.1-10.5-19.2c-7.8-2.3-15.8,2.9-19.9,10.9c-3.9,7.5-7.3,15.3-10.9,22.9
	c-1.5,0.5-3.3,0.7-4.5,1.6c-18.9,14.4-34.3,10.4-47.9-5.9c-3.4-4.1-6.1-8.4-10.9-11.4c-11.4-7-11.1-7.3,0.4-14.7
	c2.2-1.4,4.7-1.5,6.8-2.5c13.1-6.5,25.8-13,34.9-25.8c13.5-19,18.7-39.1,16.9-62.2c-1.4-18.2-4.7-36-15.7-50.3
	c-17.3-22.6-44.3-32.1-70.3-33.6c-18.2-1.1-37.8-1.1-57.1,2.3c-37,6.6-72.8,14.2-104.7,35.8c-30.5,20.6-54.1,45.9-65.1,81.6
	c-12.1,39.1,2.8,71.4,37.7,85.2c24.2,9.6,68.8-11.2,70.6-49c0.2-4.5,0-8.6-5.6-11c-15.3-6.5-19.4-17.3-15.2-33.1
	c4.5-17.3,16.3-28.1,30.7-36.4c27.8-16,58.8-18.1,89.4-14.4C899.3,447,911,459,910.9,490c-0.1,23.4-21.9,47.3-45.5,50
	c-7.9,0.9-14.1-2.1-14.4-12.4c-0.4-14.5,3-28.6,5.9-42.4c2.2-10.3,0.7-17.5-8.1-21.6c-10.8-5-27.2,0-31.6,8.1
	c-11.2,20.6-12.5,44-18.1,66.2c-8,31.6-18.3,61.8-45,83.1c-22.6,18-50.1,13.5-59.3-7.6c-5.1-11.6-10.2-14-21.9-8.9
	c-4.9,2.1-9.3,4.9-13.2,8.8c-9.9,9.9-13.6,21.6-16.7,35.4c-5.1,22.5-3.8,42.4,9.2,61.4c-2.1,6.5-4.2,13.1-6.3,19.6
	c-1.1-1.1-2.6-2.1-3.3-3.4c-5.7-10.9-8.6-5.4-11.3,1.8c-0.4,1.1-1.1,2.1-1.7,3.1c-4.4,2.6-7.8,6.1-10.5,10.4
	c-8.3-9.7-1.8-18.2,2.1-26.9c18.1-36.3,20.6-72.8,0.9-109.2c-10.6-19.5-27-34.8-40.6-52.2c-10.3-13.2-18.6-27-16.6-44.6
	c1.2-10.7,7-18.8,17.9-20.6c16.2-2.7,19.5,1.2,25.1,15.7c3.2,8.3-0.3,14.4-2.1,21.1c-2.1,7.7,4.4,9,7.7,12.2
	c2.3,2.3,5.7,3.9,10.6,0.6c15.6-10.4,25.3-24.5,29-42.3c5.4-26.4-1.2-61.7-36.9-71.8c-19.7-5.6-39.4-3.5-59.3,1.9
	c-23.8,6.6-50,37.3-50.1,65.9c-0.1,32,14.5,55.9,32.6,79.5c12.7,16.7,29.4,31.8,25.4,56.2c-4.7,0.7-9.4,1.4-14.2,2.2
	c-1.7-21.5-16.6-46.3-29.9-50.4c1.5,13,1.5,13-5.7,29.7c-8.1,18.8,0,31.3,20.1,31.4c2,0,3.9,0.2,6.7,0.3c-2.6,6.1-5,11.7-7.3,17.2
	c-9.4,1-16.3-4.4-23.3-9.3c-5.2-1-6.9-6.4-11.1-8.5c-2.7-10.8-7.7-21.1-0.6-32.6c2-3.2,2.9-8.2,4.5-12.3c2.9-7.4,0.8-12-7.5-14.6
	c-13.3-4.2-23.8,2.6-33.2,8.9c-21.3,14.2-30.2,36.1-32.5,61c-1.9,3.3-3.8,6.6-5.7,9.8c-2.8,0.2-5.4,0.8-8.2,1.8
	c-18.4,6.5-28.5,0-34.2-18.7c-6.5-21.1,2.3-41.4,1.5-62.1c-0.5-14.4,8.7-26.5,12.3-40.1c2.4-9,9.5-12.2,19.5-9.4
	c14,3.9,35.7-16.4,32.9-30.7c-1.6-7.9-1-15.6-1-23.3c0.1-14.6-11.7-31.9-25.7-33.6c-21.8-2.5-43.2,0.2-62.5,11.8
	c-27.5,16.5-46.2,41.5-62.8,68c-19.7,31.3-33.5,65.5-47.1,99.8c-3.3,8.4-5.9,7.9-11.9,2.6c-11.2-9.9-17.7-22.2-21.8-36.3
	c-7.2-25,1.7-41,26.3-47.4c5.2-1.3,11.8-2,11.2-10.5c-1.1-14.5-9.8-27.3-24-31c-24.5-6.2-47.8-4.7-67,14.7
	c-20.1,20.2-25,43.4-17.1,70.7c11.1,38.3,37.8,61.1,72.8,75.8c7.7,3.2,8.6,4.2,3.5,11.4c-14.3,20-33.1,31.9-57,37.2
	c-18.2,4-36.8-3.1-43.5-20.3c-3.3-8.4-8.2-8.6-14.7-7.8c-6.2,0.7-11.6,3.6-16.2,7.8c-20.5,18.7-29.1,41.1-23.7,69
	c11.8,61.4,75.3,74.7,121.7,46.7c20.1-12.2,35.6-31.7,47.9-52.9c12.4-21.3,24.4-43.2,32.1-66.3c3.3-9.8,6.8-9.4,13.4-9.4
	c10-0.1,20,0.6,29.9-0.2c9.1-0.7,11.8,1.8,11.8,11.4c0,19.5,2.2,39,11.5,56.7c10.9,20.8,23.4,27.4,40.5,22.2
	C375.4,773,375.3,778.7,375.2,784.3z M489.7,505.3c-0.6-7.4,3.4-15.3-2.9-22c-8-8.5-15.8-17.1-23.7-25.7c-3.5-14.9-10.3-29.1-8.2-45
	c0.2-1.2-1.4-3.9-1.9-3.8c-7.8,0.9-13.6-5.9-21.1-5.5c-32.9,1.7-65.4-5.3-98.2-5.1c-3.1,0-6.7,1.5-9-2.1c4.1-3.4,8.7-1.6,13.1-1.4
	c34.7,2.1,69.4,3.8,104.1,6.6c10.1,0.8,15.2-3.5,18-12c6.3-19.1,18.6-33.8,35.4-44.1c7.4-4.6,3.9-8.8,1.8-13.2
	c-19.5-39.8-39.6-79.4-58.7-119.4c-4.5-9.3-9.7-7.8-16.1-4.1c-59.2,34.5-98.2,84.7-115.3,151.1c-2.9,11.3-8.9,23.8-1,36
	c-5.3,3-4.8,8.3-4.8,13.2c-0.4,20.5-0.9,41,4.6,61.1c0.6,2.3-0.2,5.4,2.6,6.5c3.6,1.5,5-2.1,6.8-4c10.8-11.9,23.7-21.3,37.3-29.5
	c37.3-22.3,84.3-28.2,108.3,15.5c2,11.7,5.4,23.2,4.7,35.3c-0.5,8.3-5.6,15.6-4.7,24.1c-3.4,4.5-6.5,9.3-10.3,13.6
	c-8.3,9.3-18.3,18-31.2,15.7c-8.5-1.5-9.4,0.8-12.5,7.4c-4.7,10.1-3,16.3,6,22c5.1,3.3,10.1,7.2,14.1,11.7c5.9,6.6,9.8,4.4,15.2-0.9
	c24-23.8,45.8-28.1,77-14.4C506,550.3,493.7,529.5,489.7,505.3z M567.8,397c10.7,8,24,5.3,35.8,8.5c4.5,1.2,12.1,1.8,10-7.1
	c-5.6-23.1-19.7-39.2-40.8-50.4c-19.6-10.4-40.1-6.2-60.4-6.9c-0.1-4.5,0.6-9.2-0.5-13.5c-10.3-38.6-20.7-77.2-31.4-115.7
	c-6.5-23.4-6.4-22.2-30.3-16.3c-12.8,3.2-10.5,9.4-6.9,16.6c19.8,40.2,39.9,80.3,60,120.4c1.9,3.9,3.2,8.9,9.3,8.3
	c-0.7,2.7-2.9,3.8-5.2,4.7c-15.4,6-27.1,16.3-35.9,30.2c-19.1,29.9-13.5,73.2,12.1,97.7c6.9,6.6,8.6,4.1,10.4-3.1
	c1.1-4.7,1.5-10.3,4.4-13.6c8-8.8,5.2-17.1,1.8-26.4c-10.6-29,11.6-55.2,41.5-54.2c14.3,0.5,26.5,10.6,26,20.5
	c-9.9-10.6-21.9-15.3-36.5-13.4c-11.8,1.5-20.8,7.5-25.4,18.1c-5.4,12.6-5.3,25.3,4.7,37.5c2.3-4.4,1.9-7.1,0.9-10.9
	c-5-20.3,2-39.3,28.5-37.5c8.3,0.6,14.9,3.4,21.1,8C564.3,401,566.6,402.5,567.8,397z M522.5,287.1c-5-30.2-5.6-60.9-9.2-91.4
	c-1.7-14-4.7-16.1-17.7-12.1c-15.5,4.8-15.8,3.6-11.2,19c1.4,4.6,2.2,9.5,3.4,14.2c9.7,36.9,19.4,73.8,29.2,110.7
	c0.7,2.8,0,7.4,5.4,6c4.3-1,2.7-4.5,2.7-7.1C525.1,313.3,525.3,300.1,522.5,287.1z M645.8,540.7c-9.2,9.6-19.7,14.8-33.7,15.2
	c10.4,17.9,20.1,34.7,30,51.7c8-5.2,12.7-13,21.3-16c4.3-1.5,5.1-5.7,2-9.1C654.7,570.9,650.5,556.2,645.8,540.7z M868.7,461.2
	c6.2,8.2,6.2,17,4.3,25.3c-2.3,9.9-4.2,19.7-4.7,29.9c-0.3,6.7,0.5,7.3,6.7,4.2c7.9-3.9,12.6-10.4,16.5-17.4
	c6.1-10.8,5.9-22.3-0.5-33.1C886.4,462.5,879.2,459.3,868.7,461.2z M798.6,470.6c-0.2-2-4.1-0.6-6.7,0.9
	c-9.8,5.5-17.9,13.1-22.3,23.4c-1.9,4.6-6.6,12.3-0.2,15.1c5.5,2.4,11.3,3.9,16.2,7.6c1.3,1,3.1-0.6,3.3-2.5
	C789.9,500.9,795.4,487.9,798.6,470.6z M261.2,554.3c-0.7-0.7-1.5-1.4-2.2-2.1c-7.7,8.2-24.7-0.1-27.4,15.9
	c-2,12.1-0.5,24.3,8.5,34.8C247.3,586.3,254.2,570.3,261.2,554.3z M532.8,398.1c-13.3-0.3-23.2,14.6-17.4,26.4c2,4.2,4.8,4.8,8.6,1
	c4.8-4.8,10.4-8.3,17.2-10.5c3.1-1,9.6-2.3,8.2-7.2c-1.1-3.7-5.6-6.7-9.2-9.1C538.3,397.5,535.3,398.2,532.8,398.1z M400.1,574.8
	c1.7,8.5-3.3,14.8,0.6,18.8c5.5,5.7,12.7,9.7,19.7,13.6c1.9,1.1,5.7,1.6,7.9-2.9c2.1-4.3,2.1-6.4-1.5-9.1
	C418.9,589.3,411,583.2,400.1,574.8z M753.3,597.9c-13,7.1-27.4,6.1-41.7,8.3C722.1,620.9,743.1,616.8,753.3,597.9z M395.5,624
	c1.1,7.5,1.5,13.5,2.9,19.2c0.7,2.8,3.4,6.6,6.5,5.5c3.5-1.2,8.9-0.1,10.1-5.4c0.8-3.6,1.3-7.5-2.8-9.9
	C407.4,630.5,402.5,627.8,395.5,624z M422.9,617.3c0.3-3.6-2.1-4.6-4.2-5.9c-4.8-3.1-9.6-6.1-14.3-9.3c-1.7-1.2-3.6-3.1-5.3-1.3
	c-1.1,1.2-1.2,3.9-1,5.9c0.6,4.9,14.4,16.2,19.1,15.8C420.6,622.2,422.1,619.8,422.9,617.3z M589.4,534.2c1.6-7.3-0.8-13.9-1.5-20.7
	c-0.4-3.8-3.3-5.1-5.2-5.1c-4.6,0-3.3,4.5-2.6,6.5C582.5,521.5,583.2,529.1,589.4,534.2z"/>
<path class="st1" d="M534.5,657.3c2.3-5.5,4.7-11.1,7.3-17.2c-2.8-0.1-4.8-0.3-6.7-0.3c-20.2,0-28.2-12.6-20.1-31.4
	c7.2-16.6,7.2-16.6,5.7-29.7c13.4,4.1,28.2,28.9,29.9,50.4c4.7-0.7,9.4-1.4,14.2-2.2c8.1,4.9,6.6,12.9,5,19.8
	c-2.1,9.4-6.7,18.2-8.7,27.6c-1.9,9-7.8,17.8-4.5,27.9c6.4-1.2,8.6-6.2,11.9-9.6c11.4-12.1,33.8-15.2,46.3-3.4
	c8.3,7.8,4.1,17,6.4,25.3c-3.9,8.7-10.4,17.3-2.1,26.9c1,7,6.2,5.3,10.7,5.1c12,0.7,12.8-9.4,16.1-16.9c2.1-6.5,4.2-13.1,6.3-19.6
	c5.5-13,14.2-23.7,24.1-33.6c19.5-19.5,54.1-14.6,66,4.3c7.1,11.2,8.1,24,7.5,36.7c-0.4,9.3,2.5,9.1,9.9,5.7
	c11.5-5.3,9.6-16.1,11.8-25.1c3.5-14.7,6.4-29.7,17-41.3c7.2-7.8,11.6-6.6,15.8,3.1c0.8,1.9,2.2,3.5,3.3,5.2
	c-3.4,12.7-5,25.7-5.5,38.8c-1.3,10.4-1.7,20.3,12.4,22c11.7-1.6,19.1-9.4,19.4-20.9c0.2-9.1,0-18.2,0-27.3
	c0-23.3,2.7-27.5,22.8-35.5c19,8.1,20.8,12.1,15.5,33.4c-0.3,1.2-0.1,2.4-0.2,3.7c-5.1,6.3-5.6,13.8-5.7,21.4
	c-0.1,8.8,3.3,14.7,12.6,16c9.8-0.3,19.1-1.1,19.8-14.1c2-9.3-3.5-17-5.5-25.4c0.5-8.1,0.6-16.1,3-24c3.1-10.5,14-20.2,22.7-18.2
	c11.3,2.5,12.7,11.2,13.2,21.6c0.5,11.4-3.2,22.1-3,33.3c-3,4.8-4.6,9.8-4.2,15.7c7.9-1.5,13.8-4.8,17.8-10.9
	c5.5-8.4,10.6-7.1,15.9-0.1c-0.2,0.8-0.3,1.6-0.3,2.4c-0.9,1.3-2.2,2.5-2.7,4c-6.9,20-17.8,35.3-41.5,36.2c-3.8,0.1-6.9,2.8-8.6,6.3
	c-7.5,15.1-19.7,25-34.8,31.7c-9.6,0.3-14.1-6.8-19-13.3c-2.2-7.9-4.3-15.8-6.5-23.6c-7.2,23.4-20.2,40.2-44.2,46.9
	c-12.4-3.1-20.3-11.6-25.9-22.5c-3.1-4.2-2.7-15.3-8-12.3c-9.7,5.6-22,8.1-29.1,16.9c-16.1,19.7-35.1,32.9-61.5,32.8
	c-9.4-0.8-13.9-9.9-22-12.9c-1.8-4.5-3.2-9.1-8.5-13.8c-10,20.1-22.7,36.9-46.7,39.2c-21.7-9-19.8-19.3-19.7-37.5
	c0-1.9-0.6-3.1-2.2-3.9c3-6.3,6.2-12.5,4.5-19.8c5-5,3.1-11,1.3-16.2c-1.2-3.5-6.1-4-9.6-3.7c-11.9,1.3-20.2,14.1-18.6,27.8
	c-3.7,5.3-1.2,11.4-1.9,17.1c-2.3,5.5,0.5,10.6,1.6,15.7c3.3,15.8-8.6,22.9-17.6,31.7c-9.1-2.3-17-6.4-21.8-15.1
	c-3.8-9.6-2.2-19.9-3.6-29.8c0.7-5.6,1.4-11.2,2.1-16.8c1.6-9.2,3-18.5,4.8-27.6C523.9,708.8,529.2,683,534.5,657.3z M702.8,705.4
	c-10.7,0.1-20.4,10.3-19.9,21.7c0.5,11,8.5,12.5,17.3,12.4c9.6-0.1,16.3-8.5,16.6-20.1C717.1,709.5,712.9,704.7,702.8,705.4z"/>
<path class="st1" d="M776.9,378.1c-5.4,7.3-14.4,8.8-21.8,12c-12.3,5.2-24.8,10-35.2,18.4c-7.7,6.2-17.4,5.7-25.4,10.1
	c-1.8-0.3-3.5-0.5-5.3-0.8c-11.4-2.1-22.7-6.4-34.5-1.7c-3-1.5-4.9,1.2-7.4,1.9c-5.8-2.4-11.3-5.7-17.3-6.9c-8.8-1.8-11-7-10-14.8
	c8.5-14.1,16.3-29.7,14-45.5c-3-20.3-1-40,1.1-59.6c2.6-24.3,7.8-48.4,33.4-60.6c2.6-1.3,6.5-2,6.8-6.2c7.3-1.8,8.8,10.9,17,7
	c0,0-0.2-0.1-0.2-0.1c7.8,13.9,18.5,24.8,32.5,32.5c0,0-0.1-0.1-0.1-0.1c-1.9,4.3,1.1,6.9,3.3,9.7c20.8,26.3,33.4,56.4,42,88.6
	c1.1,4-0.6,10.5,6.5,11.5C776.4,375,776.6,376.6,776.9,378.1z M716.8,289.8c-0.2-2.8,0.4-5.6-1.1-8.4c-9.4-17.6-24.3-30-40.1-41.2
	c-3.5-2.4-9.9-3.1-13.3,1.7c-2.9,4-3.7,8.4-0.1,13.5c11,15.6,26.8,26.8,37.5,42.6c3.5,5.1,7.1,1.4,10.8,0.8
	C715.5,297.8,717.2,294.5,716.8,289.8z"/>
<path class="st1" d="M375.2,784.3c0.1-5.7,0.3-11.4,0.4-17c2.4-4.9,4.7-10,7.4-14.8c8.6-15.2,28.2-27.1,40-17.3
	c-0.1,4.7-2.1,8.9-4.5,12.7c-3.5,5.6-3.1,10.8,0.3,16.1c0.8,7.2,4.6,11.4,11.8,12.4c15.1,6.6,27.8-2.7,26.8-19.6
	c1.6-5.6-0.2-10.5-3.4-15c-6.1-8.5-12.5-16.9-18.8-25.4c-12.1-17.4-15.7-36.3-10.1-56.9c1.9-3.3,3.8-6.6,5.7-9.8
	c1.5-0.5,3.4-0.6,4.4-1.6c19.5-18.7,41.9-16.1,64.9-8.8c4.3,2.1,6,7.6,11.1,8.5c0.4,2,1.1,4,1.2,6c1,15.9,4.7,32.2-8.7,45.5
	c-4.6,4.6-10.5,7.3-16,5.9c-7.3-1.9-3.2-8.4-2.7-13.2c0.6-6,0.1-11.9-5.7-15.3c-4.8-2.9-9.6-1.2-13.9,1.7c-5.8,3.8-8.3,9.5-6.6,15.9
	c1.3,5,4.1,9.8,7,14.2c11.8,18.1,28.5,32.7,36.7,53.3c0.3,5.7,0.5,11.4,0.8,17.1c-3.2,13-2.7,27.5-12.3,38.2
	c-18,20.1-38.5,34.5-67.7,24.7c-2.5-0.8-5.7,0.5-8.5,0.9C389,831.9,378.6,810.5,375.2,784.3z"/>
<path class="st1" d="M982.9,587.6c3.6-7.7,7-15.4,10.9-22.9c4.1-8.1,12.1-13.2,19.9-10.9c7.2,2.1,10.5,10.3,10.5,19.2
	c0,13.2-1,26.3-2.8,39.3c-2.7,8.9-5.1,18.1-8.3,26.8c-6.9,18.7-9.7,39.1-22.5,55.5c-10.9,5.1-11-5.3-14.8-10.3
	c3.7-7.4-1.6-14.6-0.4-22c1.9-8.8,1.1-17.8,1.9-26.6C978.7,619.5,983.2,603.8,982.9,587.6z"/>
<path class="st2" d="M870.8,775.3c15.1-6.7,27.3-16.6,34.8-31.7c1.7-3.5,4.8-6.2,8.6-6.3c23.7-0.9,34.5-16.2,41.5-36.2
	c0.5-1.5,1.8-2.6,2.7-4c17.4,0,10.7,11.7,10,20.4c-5.6,5.8-12.7,10.5-13.1,19.7c-9.8,3.7-18.2,11.1-29.9,10.1
	c-5.2-0.4-6.6,5.7-8.9,9.3c-6.4,9.8-12.9,19.7-24.6,23.4C884.4,782.4,875.6,786.2,870.8,775.3z"/>
<path class="st2" d="M990.6,694.5c12.8-16.3,15.6-36.7,22.5-55.5c3.2-8.8,5.6-17.9,8.3-26.8c7.4-12.6,7.4-28.3,16.5-40.2
	c1.1,43.1-10.6,83.3-28,122.2c-2,4.4-4,9.6-9.9,10.2C992.8,705.2,994.3,697.3,990.6,694.5z"/>
<path class="st2" d="M414.9,842.7c2.9-0.3,6-1.7,8.5-0.9c29.2,9.8,49.6-4.6,67.7-24.7c9.6-10.7,9-25.2,12.3-38.2c2.8,0,5.6,0,8.4,0
	c1.4,9.9-0.2,20.2,3.6,29.8c-8.6,12.8-14.7,27.4-29.2,35.7c-19.6,11.2-39.9,12.3-60.9,6.2C421.2,849.6,416.7,847.5,414.9,842.7z"/>
<path class="st2" d="M676.5,800.1c26.4,0.2,45.4-13,61.5-32.8c7.2-8.8,19.4-11.3,29.1-16.9c5.2-3,4.9,8.1,8,12.3
	c-16,6.7-28.1,17.6-40,30.4c-12.4,13.4-29.8,20.4-49.6,14.1C681.3,806,677.6,804.9,676.5,800.1z"/>
<path class="st1" d="M955.2,737.3c0.4-9.2,7.6-13.9,13.1-19.7c12.5-2.3,21.5,3.7,29.4,12.4c2,21.1-0.3,24.5-22.3,32.7
	C963.7,758.2,952.8,753,955.2,737.3z"/>
<path class="st2" d="M801,785.3c24-6.6,37-23.5,44.2-46.9c2.2,7.9,4.3,15.8,6.5,23.6c-6.1,12.5-13.6,23.9-27.6,28.3
	C815.9,792.9,807,794.7,801,785.3z"/>
<path class="st2" d="M599.3,812.6c24-2.4,36.8-19.1,46.7-39.2c5.3,4.7,6.7,9.3,8.5,13.8c-4.3,17.2-22.7,33.8-39,34.2
	C609,821.6,603,818.7,599.3,812.6z"/>
<path class="st2" d="M537.2,823.9c9-8.8,20.9-16,17.6-31.7c-1.1-5.1-3.9-10.2-1.6-15.7c4.2,0.5,7.8-3.8,12.2-1.9
	c-2.7,11.3,3.4,22,1.9,33.2c-1,6.9-1.4,14.9-8.8,18C551.6,828.5,543.7,831.5,537.2,823.9z"/>
<path class="st0" d="M975.4,662.2c-1.2,7.4,4.1,14.6,0.4,22c-5.5,4-10.2,9.1-17.2,10.6c-5.3-7-10.5-8.3-15.9,0.1
	c-4,6.1-9.9,9.4-17.8,10.9c-0.4-5.9,1.2-11,4.2-15.7C948.4,687.2,961.7,674.4,975.4,662.2z"/>
<path class="st2" d="M975.4,762.7c22-8.2,24.4-11.6,22.3-32.7c11.8,1.9,12.6,10.7,13,20.2c0.4,11.7-7.4,17.1-16.2,20.6
	C986.6,774,979.3,771.2,975.4,762.7z"/>
<path class="st0" d="M776.1,373.4c-7.1-1-5.4-7.5-6.5-11.5c-8.6-32.1-21.2-62.3-42-88.6c-2.2-2.8-5.2-5.4-3.3-9.7
	c22.1,22,34.7,49.5,44.7,78.3C772.5,352.1,777.3,362.1,776.1,373.4z"/>
<path class="st0" d="M565.4,774.5c-4.5-1.8-8,2.4-12.2,1.9c0.7-5.7-1.9-11.7,1.9-17.1c9.7,0.1,17.7-6,26.8-8
	c1.7,7.3-1.5,13.5-4.5,19.8C573.2,771.7,569.9,775.4,565.4,774.5z"/>
<path class="st0" d="M724.4,263.8c-14-7.7-24.7-18.6-32.5-32.5C705.3,239.5,716.2,250.3,724.4,263.8z"/>
<path class="st3" d="M422.9,735.3c-11.8-9.8-31.3,2.1-40,17.3c-2.7,4.8-4.9,9.9-7.4,14.8c-17.1,5.3-29.5-1.4-40.5-22.2
	c-9.3-17.7-11.5-37.2-11.5-56.7c0-9.6-2.7-12.2-11.8-11.4c-9.9,0.8-19.9,0.1-29.9,0.2c-6.6,0-10.1-0.4-13.4,9.4
	c-7.8,23.1-19.7,44.9-32.1,66.3c-12.3,21.1-27.8,40.7-47.9,52.9c-46.4,28-109.9,14.7-121.7-46.7c-5.4-27.9,3.2-50.3,23.7-69
	c4.6-4.2,10-7,16.2-7.8c6.5-0.8,11.4-0.6,14.7,7.8c6.8,17.2,25.3,24.3,43.5,20.3c23.9-5.3,42.7-17.1,57-37.2
	c5.2-7.2,4.2-8.2-3.5-11.4c-35-14.7-61.7-37.5-72.8-75.8c-7.9-27.3-3-50.5,17.1-70.7c19.2-19.3,42.6-20.9,67-14.7
	c14.2,3.6,22.8,16.4,24,31c0.7,8.5-6,9.2-11.2,10.5c-24.6,6.4-33.5,22.4-26.3,47.4c4.1,14.1,10.6,26.4,21.8,36.3
	c6,5.3,8.5,5.8,11.9-2.6c13.5-34.3,27.4-68.5,47.1-99.8c16.6-26.5,35.2-51.5,62.8-68c19.3-11.6,40.7-14.3,62.5-11.8
	c14,1.6,25.8,19,25.7,33.6c0,7.7-0.6,15.5,1,23.3c2.9,14.3-18.9,34.6-32.9,30.7c-10-2.8-17.1,0.4-19.5,9.4
	c-3.6,13.6-12.8,25.7-12.3,40.1c0.7,20.8-8,41-1.5,62.1c5.7,18.7,15.8,25.2,34.2,18.7c2.8-1,5.4-1.6,8.2-1.8
	c-5.6,20.5-2,39.5,10.1,56.9C431.1,722.8,427,729,422.9,735.3z M304.4,647.4c2.5,0,5.1-0.5,7.4,0.1c12.2,2.7,15.5-4.8,16.2-14.4
	c0.6-8.2,2.5-16,4.5-23.8c4.4-17.1,9-34.1,12.8-51.4c1.1-4.9,2.7-11.9-3.3-14.5c-5.2-2.2-8.8,2.3-12.6,6.5
	c-5.9,6.5-10,13.7-14.1,21.3c-9.7,18-17.3,37-25.1,55.8C280,651.6,283.4,647.1,304.4,647.4z"/>
<path class="st3" d="M975.4,662.2c-13.6,12.3-26.9,25-46.2,27.8c-0.2-11.2,3.5-21.9,3-33.3c-0.5-10.4-1.9-19.1-13.2-21.6
	c-8.7-2-19.6,7.7-22.7,18.2c-2.4,7.9-2.5,16-3,24c-9.8-6.8-12.6-18-16.6-28c-7.1-17.7-6.1-37.7-15-55c-3.8-7.2-8.7-12.8-18-11.7
	c-9.2,1.1-7.7,9.4-9.5,15c-7.4,23.1-12,47.2-26.5,67.6c-1.1-1.7-2.5-3.3-3.3-5.2c-4.2-9.8-8.6-10.9-15.8-3.1
	c-10.6,11.6-13.5,26.5-17,41.3c-2.1,9-0.2,19.8-11.8,25.1c-7.4,3.4-10.3,3.6-9.9-5.7c0.6-12.8-0.4-25.6-7.5-36.7
	c-11.9-18.9-46.5-23.8-66-4.3c-9.9,9.9-18.6,20.6-24.1,33.6c-13-19-14.2-38.9-9.2-61.4c3.1-13.8,6.8-25.5,16.7-35.4
	c3.9-3.9,8.3-6.6,13.2-8.8c11.6-5,16.8-2.6,21.9,8.9c9.2,21.1,36.7,25.6,59.3,7.6c26.6-21.2,37-51.5,45-83.1
	c5.6-22.2,6.8-45.6,18.1-66.2c4.4-8.1,20.8-13.1,31.6-8.1c8.8,4.1,10.2,11.3,8.1,21.6c-2.9,13.8-6.3,27.9-5.9,42.4
	c0.3,10.3,6.4,13.3,14.4,12.4c23.6-2.7,45.4-26.6,45.5-50c0.1-31-11.5-43-37.6-46.1c-30.5-3.7-61.5-1.7-89.4,14.4
	c-14.4,8.3-26.2,19.1-30.7,36.4c-4.2,15.8-0.1,26.6,15.2,33.1c5.6,2.4,5.8,6.5,5.6,11c-1.8,37.9-46.4,58.6-70.6,49
	c-34.9-13.8-49.8-46.1-37.7-85.2c11-35.7,34.7-61,65.1-81.6c31.9-21.6,67.6-29.2,104.7-35.8c19.3-3.4,38.9-3.4,57.1-2.3
	c26,1.5,52.9,11,70.3,33.6c10.9,14.3,14.3,32.1,15.7,50.3c1.8,23.1-3.4,43.3-16.9,62.2c-9.1,12.8-21.8,19.2-34.9,25.8
	c-2.1,1-4.5,1.1-6.8,2.5c-11.5,7.4-11.9,7.7-0.4,14.7c4.9,3,7.6,7.3,10.9,11.4c13.6,16.3,29.1,20.4,47.9,5.9c1.2-0.9,3-1.1,4.5-1.6
	c0.3,16.2-4.2,31.9-5.6,48C976.4,644.4,977.2,653.4,975.4,662.2z"/>
<path class="st3" d="M306,395.6c-7.8-12.2-1.9-24.7,1-36c17.1-66.4,56.1-116.6,115.3-151.1c6.4-3.7,11.6-5.2,16.1,4.1
	c19.2,40,39.2,79.6,58.7,119.4c2.2,4.4,5.6,8.6-1.8,13.2c-16.8,10.4-29,25-35.4,44.1c-2.8,8.5-7.9,12.7-18,12
	c-34.7-2.7-69.4-4.5-104.1-6.6c-4.4-0.3-9.1-2-13.1,1.4C318.5,395.9,312.3,395.8,306,395.6z"/>
<path class="st3" d="M621.2,714.6c-2.3-8.3,1.9-17.5-6.4-25.3c-12.5-11.8-34.9-8.7-46.3,3.4c-3.3,3.5-5.5,8.4-11.9,9.6
	c-3.3-10.2,2.6-18.9,4.5-27.9c2-9.4,6.6-18.2,8.7-27.6c1.5-6.9,3-14.9-5-19.8c4-24.3-12.6-39.5-25.4-56.2
	c-18.1-23.6-32.8-47.5-32.6-79.5c0.1-28.6,26.3-59.3,50.1-65.9c19.9-5.5,39.6-7.5,59.3-1.9c35.7,10.1,42.2,45.4,36.9,71.8
	c-3.7,17.9-13.4,31.9-29,42.3c-4.9,3.3-8.3,1.7-10.6-0.6c-3.2-3.2-9.7-4.4-7.7-12.2c1.8-6.6,5.3-12.8,2.1-21.1
	c-5.6-14.5-8.9-18.4-25.1-15.7c-10.9,1.8-16.6,9.9-17.9,20.6c-2,17.5,6.3,31.4,16.6,44.6c13.6,17.4,30,32.6,40.6,52.2
	C641.9,641.8,639.4,678.4,621.2,714.6z"/>
<path class="st4" d="M675.2,224.4c-0.3,4.2-4.1,4.9-6.8,6.2c-25.7,12.2-30.8,36.4-33.4,60.6c-2.1,19.6-4.1,39.3-1.1,59.6
	c2.3,15.8-5.5,31.4-14,45.5c-7.6-26.2-27.2-42.5-48-57.7c1.4-18.9-1.3-37.2-5.8-55.6c-8.4-34.3-9.2-68.1,11.1-99.4
	C613.3,189,646.3,201.8,675.2,224.4z"/>
<path class="st5" d="M567.7,396.7c0.4-9.9-11.7-20-26-20.5c-29.9-1-52.1,25.2-41.5,54.2c3.4,9.3,6.2,17.6-1.8,26.4
	c-2.9,3.2-3.3,8.9-4.4,13.6c-1.7,7.3-3.5,9.7-10.4,3.1c-25.6-24.5-31.2-67.8-12.1-97.7c8.9-13.8,20.6-24.1,35.9-30.2
	c2.3-0.9,4.5-2.1,5.2-4.7l-0.2,0.2c20.3,0.7,40.8-3.5,60.4,6.9c21.1,11.2,35.1,27.3,40.8,50.4c2.2,8.8-5.4,8.3-10,7.1
	c-11.9-3.2-25.2-0.5-35.8-8.5C567.8,397,567.7,396.7,567.7,396.7z"/>
<path class="st1" d="M577.3,183.7c-20.3,31.3-19.5,65.1-11.1,99.4c4.5,18.4,7.2,36.7,5.8,55.6c-12.5,0.9-23.9-4.8-36.3-5.3
	c-4.8-0.2-5.3-6.2-5.7-10.7c-3.3-40.4-6.6-80.8-10-121.1c-1.9-22.8-2-22.7,21.4-22.7C553.6,178.8,565.6,180,577.3,183.7z"/>
<path class="st1" d="M306,395.6c6.3,0.2,12.5,0.3,18.8,0.5c2.3,3.7,5.9,2.2,9,2.1c32.8-0.2,65.3,6.8,98.2,5.1
	c7.4-0.4,13.3,6.4,21.1,5.5c0.5-0.1,2.1,2.6,1.9,3.8c-2.2,15.9,4.6,30.2,8.2,45c-0.8,0.2-1.6,0.5-2.4,0.7
	c-24-43.6-71-37.8-108.3-15.5c-13.6,8.1-26.5,17.6-37.3,29.5c-1.7,1.9-3.2,5.5-6.8,4c-2.7-1.1-1.9-4.2-2.6-6.5
	c-5.5-20.1-5-40.6-4.6-61.1C301.3,403.9,300.7,398.7,306,395.6z"/>
<path class="st1" d="M489.7,505.3c4,24.2,16.3,45,29.3,67.6c-31.2-13.7-53-9.4-77,14.4c-5.3,5.3-9.2,7.5-15.2,0.9
	c-4.1-4.5-9-8.5-14.1-11.7c-9-5.7-10.7-11.9-6-22c3.1-6.6,4-8.8,12.5-7.4c12.9,2.2,22.9-6.4,31.2-15.7c3.8-4.2,6.9-9,10.3-13.6
	C470.3,513.7,480,509.5,489.7,505.3z"/>
<path class="st3" d="M502.6,761.8c-8.3-20.5-24.9-35.2-36.7-53.3c-2.9-4.4-5.6-9.2-7-14.2c-1.7-6.4,0.8-12.1,6.6-15.9
	c4.4-2.9,9.1-4.5,13.9-1.7c5.8,3.5,6.3,9.4,5.7,15.3c-0.5,4.9-4.6,11.3,2.7,13.2c5.6,1.5,11.4-1.3,16-5.9
	c13.4-13.2,9.7-29.6,8.7-45.5c-0.1-2-0.8-4-1.2-6c7.1,4.9,13.9,10.3,23.3,9.3c-5.3,25.7-10.7,51.4-15.9,77.2
	c-1.8,9.2-3.2,18.4-4.8,27.6C510.1,762,506.4,761.9,502.6,761.8z"/>
<path class="st1" d="M512.7,340.9c-6.1,0.6-7.4-4.4-9.3-8.3c-20.1-40.1-40.2-80.1-60-120.4c-3.6-7.2-5.8-13.4,6.9-16.6
	c23.9-5.9,23.8-7.1,30.3,16.3c10.7,38.5,21.2,77.1,31.4,115.7c1.1,4.2,0.4,9,0.5,13.5C512.5,341.1,512.7,340.9,512.7,340.9z"/>
<path class="st3" d="M522.5,287.1c2.8,13,2.6,26.2,2.6,39.3c0,2.6,1.6,6.1-2.7,7.1c-5.5,1.3-4.7-3.3-5.4-6
	c-9.8-36.9-19.5-73.8-29.2-110.7c-1.2-4.7-2-9.5-3.4-14.2c-4.5-15.4-4.2-14.2,11.2-19c13-4,16-1.8,17.7,12.1
	C516.9,226.2,517.5,256.9,522.5,287.1z"/>
<path class="st3" d="M500.1,639.5c-23-7.3-45.4-9.9-64.9,8.8c-1,1-2.9,1.1-4.4,1.6c2.3-24.9,11.2-46.8,32.5-61
	c9.4-6.3,19.9-13,33.2-8.9c8.4,2.6,10.5,7.2,7.5,14.6c-1.6,4.1-2.6,9.1-4.5,12.3C492.4,618.4,497.4,628.7,500.1,639.5z"/>
<path class="st3" d="M645.8,540.7c4.7,15.5,8.9,30.2,19.6,41.8c3.1,3.4,2.3,7.6-2,9.1c-8.6,2.9-13.2,10.8-21.3,16
	c-9.9-17-19.6-33.8-30-51.7C626.1,555.5,636.7,550.3,645.8,540.7z"/>
<path class="st4" d="M868.7,461.2c10.5-1.9,17.7,1.2,22.3,9c6.4,10.8,6.6,22.3,0.5,33.1c-3.9,7-8.6,13.4-16.5,17.4
	c-6.2,3.1-7,2.5-6.7-4.2c0.5-10.2,2.4-20,4.7-29.9C874.9,478.2,874.9,469.4,868.7,461.2z"/>
<path class="st3" d="M647.2,418.1c2.5-0.7,4.4-3.4,7.4-1.9c11.3,4.3,23,1.3,34.5,1.7c1.8,0.3,3.5,0.5,5.3,0.8c2.8,2.5,7.3,4.1,2.2,9
	c-8.3,7.9-17,15.4-23.1,25.3c-1.3,2-4.7,4.3-5.7,1.2C663.4,440.6,653.1,430.6,647.2,418.1z"/>
<path class="st4" d="M489.7,505.3c-9.7,4.2-19.4,8.3-29.1,12.5c-0.9-8.5,4.2-15.8,4.7-24.1c0.7-12.1-2.7-23.6-4.7-35.3
	c0.8-0.2,1.6-0.5,2.4-0.7c7.9,8.6,15.7,17.2,23.7,25.7C493.2,490.1,489.1,498,489.7,505.3z"/>
<path class="st4" d="M798.6,470.6c-3.2,17.3-8.7,30.3-9.8,44.5c-0.1,1.9-2,3.5-3.3,2.5c-5-3.8-10.7-5.3-16.2-7.6
	c-6.4-2.8-1.7-10.5,0.2-15.1c4.4-10.3,12.5-17.9,22.3-23.4C794.5,470,798.4,468.6,798.6,470.6z"/>
<path class="st4" d="M261.2,554.3c-7,16-13.9,32-21.1,48.6c-9.1-10.6-10.6-22.7-8.5-34.8c2.7-16,19.7-7.7,27.4-15.9
	C259.7,552.9,260.4,553.6,261.2,554.3z"/>
<path class="st4" d="M567.7,396.7c0,0,0.1,0.3,0.1,0.3c-1.2,5.5-3.5,3.9-6.8,1.5c-6.2-4.6-12.8-7.4-21.1-8
	c-26.5-1.8-33.5,17.2-28.5,37.5c0.9,3.8,1.4,6.5-0.9,10.9c-10-12.1-10.1-24.9-4.7-37.5c4.6-10.6,13.6-16.6,25.4-18.1
	C545.8,381.4,557.8,386.1,567.7,396.7z"/>
<path class="st4" d="M532.8,398c2.5,0.2,5.5-0.5,7.3,0.7c3.6,2.5,8.1,5.5,9.2,9.1c1.4,5-5,6.2-8.2,7.2c-6.8,2.2-12.4,5.7-17.2,10.5
	c-3.7,3.8-6.5,3.2-8.6-1C509.6,412.7,519.5,397.8,532.8,398z"/>
<path class="st4" d="M400.1,574.8c10.9,8.4,18.8,14.5,26.7,20.5c3.6,2.7,3.6,4.8,1.5,9.1c-2.3,4.5-6,4-7.9,2.9
	c-7-3.9-14.3-8-19.7-13.6C396.9,589.6,401.8,583.3,400.1,574.8z"/>
<path class="st4" d="M753.3,597.9c-10.2,18.9-31.2,23-41.7,8.3C725.9,604,740.4,604.9,753.3,597.9z"/>
<path class="st4" d="M395.5,624c7,3.9,11.9,6.6,16.8,9.4c4.1,2.3,3.6,6.3,2.8,9.9c-1.2,5.2-6.7,4.1-10.1,5.4
	c-3.1,1.1-5.8-2.7-6.5-5.5C397,637.4,396.6,631.5,395.5,624z"/>
<path class="st4" d="M645.9,729.7c-3.4,7.6-4.1,17.6-16.1,16.9c-0.1-5.2-0.1-10.3-0.2-15.5c0.6-1,1.3-2,1.7-3.1
	c2.7-7.2,5.6-12.7,11.3-1.8C643.3,727.6,644.8,728.6,645.9,729.7z"/>
<path class="st1" d="M422.9,617.3c-0.8,2.5-2.2,4.9-5.7,5.1c-4.7,0.4-18.5-10.8-19.1-15.8c-0.2-2-0.1-4.6,1-5.9
	c1.6-1.8,3.6,0.1,5.3,1.3c4.7,3.2,9.5,6.2,14.3,9.3C420.7,612.7,423.2,613.7,422.9,617.3z"/>
<path class="st1" d="M589.4,534.2c-6.2-5-6.9-12.7-9.3-19.3c-0.7-1.9-2-6.5,2.6-6.5c1.9,0,4.7,1.3,5.2,5.1
	C588.6,520.3,591,526.9,589.4,534.2z"/>
<path class="st2" d="M629.6,731.2c0.1,5.2,0.1,10.3,0.2,15.5c-4.5,0.2-9.6,1.9-10.7-5.1C621.9,737.3,625.3,733.8,629.6,731.2z"/>
<path class="st0" d="M807.5,665.2c14.5-20.3,19.1-44.4,26.5-67.6c1.8-5.6,0.2-13.9,9.5-15c9.3-1.1,14.2,4.4,18,11.7
	c9,17.3,7.9,37.3,15,55c4,10,6.8,21.2,16.6,28c1.9,8.4,7.4,16.1,5.5,25.4c-5.9-1-10.3-4.9-14.9-8.3c-3.9-5-7.9-10-11.8-15
	c0-1.2-0.1-2.5,0.2-3.7c5.3-21.4,3.5-25.4-15.5-33.4c-0.7-11.9-3.7-23.3-7.9-35c-7.4,27.9-19.9,53.3-32.6,78.6
	c-4.7,6-9.4,12.1-14.1,18.1C802.5,690.9,804.1,677.9,807.5,665.2z"/>
<path class="st4" d="M816.1,685.9c12.6-25.3,25.2-50.7,32.6-78.6c4.2,11.7,7.2,23.1,7.9,35c-20,8-22.8,12.2-22.8,35.5
	c0,9.1,0.2,18.2,0,27.3c-0.3,11.5-7.6,19.3-19.4,20.9C811.8,712.5,816.4,699.3,816.1,685.9z"/>
<path class="st3" d="M702.8,705.4c10.1-0.8,14.4,4.1,14.1,14c-0.3,11.6-7,20-16.6,20.1c-8.8,0.1-16.9-1.4-17.3-12.4
	C682.3,715.7,692.1,705.5,702.8,705.4z"/>
<path class="st3" d="M581.9,751.4c-9.1,2-17.1,8-26.8,8c-1.6-13.7,6.7-26.5,18.6-27.8c3.4-0.4,8.4,0.2,9.6,3.7
	C585,740.4,586.9,746.4,581.9,751.4z"/>
<path class="st2" d="M871.9,679.4c3.9,5,7.9,10,11.8,15c-5.5,6.6-5.4,14.4-4.9,22.4c-9.3-1.3-12.8-7.1-12.6-16
	C866.3,693.2,866.8,685.7,871.9,679.4z"/>
<path class="st2" d="M816.1,685.9c0.3,13.4-4.3,26.6-1.7,40.1c-14.2-1.7-13.8-11.6-12.4-22C806.7,698,811.4,691.9,816.1,685.9z"/>
<path class="st4" d="M878.8,716.8c-0.5-7.9-0.6-15.8,4.9-22.4c4.6,3.4,9,7.3,14.9,8.3C898,715.7,888.6,716.5,878.8,716.8z"/>
<path class="st0" d="M502.6,761.8c3.8,0.1,7.5,0.2,11.3,0.3c-0.7,5.6-1.4,11.2-2.1,16.8c-2.8,0-5.6,0-8.4,0
	C503.1,773.2,502.9,767.5,502.6,761.8z"/>
<path class="st0" d="M716.8,289.8c0.3,4.7-1.3,8-6.4,8.9c-3.6,0.6-7.3,4.3-10.8-0.8c-10.7-15.7-26.5-27-37.5-42.6
	c-3.6-5.1-2.8-9.5,0.1-13.5c3.4-4.8,9.8-4.1,13.3-1.7c15.9,11.2,30.7,23.6,40.1,41.2C717.3,284.2,716.6,287,716.8,289.8z
	 M663.2,248.3c11,16.8,27.2,28.5,38.8,44.1c2,2.7,6.9,2.8,8.7,0c2.1-3.3,2.4-7.8-0.6-11.5c-8.2-10.2-16.2-20.3-27.1-28.1
	C677.2,248.7,672.4,243.9,663.2,248.3z"/>
<path class="st0" d="M689.1,417.8c-11.5-0.3-23.2,2.7-34.5-1.7C666.4,411.4,677.7,415.7,689.1,417.8z"/>
<path class="st0" d="M422.9,735.3c4.1-6.2,8.2-12.4,12.3-18.6c6.3,8.4,12.6,16.8,18.8,25.4c3.2,4.4,5,9.4,3.4,15
	c-6.4-5-12.1-10.6-17.8-19.4c-0.8,6.6-7,7.9-6.7,13.5c-1.4,0.7-3,1.2-2.7,3.3l0.1-0.1c-5.1,1.8-7.3,6.9-11.4,9.8
	c-3.4-5.3-3.8-10.6-0.3-16.1C420.8,744.1,422.9,740,422.9,735.3z"/>
<path class="st4" d="M432.8,751c-0.2-5.6,6-6.9,6.7-13.5c5.7,8.8,11.4,14.4,17.8,19.4c1.1,16.9-11.6,26.1-26.8,19.6
	c-0.1-7.4-0.3-14.9-0.4-22.3c0,0-0.1,0.1-0.1,0.1C432,754,432.8,752.9,432.8,751z"/>
<path class="st2" d="M430.2,754.2c0.1,7.4,0.3,14.9,0.4,22.3c-7.2-1-11-5.3-11.8-12.4C422.9,761.1,425.1,756,430.2,754.2z"/>
<path class="st0" d="M304.4,647.4c-21-0.3-24.4,4.3-14.3-20.3c7.8-18.9,15.4-37.8,25.1-55.8c4.1-7.6,8.2-14.8,14.1-21.3
	c3.8-4.2,7.5-8.7,12.6-6.5c6,2.6,4.4,9.6,3.3,14.5c-3.8,17.2-8.4,34.3-12.8,51.4c-2,7.8-3.9,15.6-4.5,23.8
	c-0.7,9.6-4.1,17.1-16.2,14.4C309.5,646.9,306.9,647.4,304.4,647.4z"/>
<path class="st4" d="M663.2,248.3c9.3-4.5,14,0.4,19.8,4.5c10.9,7.8,18.9,17.9,27.1,28.1c3,3.7,2.7,8.2,0.6,11.5
	c-1.8,2.8-6.7,2.7-8.7,0C690.3,276.9,674.2,265.1,663.2,248.3z"/>
<path class="st2" d="M432.8,751c0,1.8-0.8,3-2.7,3.3C429.8,752.3,431.4,751.7,432.8,751z"/>
</svg>
